<svg width="87" height="9" viewBox="0 0 87 9" fill="none" xmlns="http://www.w3.org/2000/svg">
<path d="M2.73599 8.68795C2.16799 8.68795 1.64399 8.58395 1.16399 8.37595C0.691994 8.15995 0.303994 7.85595 -6.29574e-06 7.46395L1.07999 6.16795C1.31199 6.47195 1.55599 6.70395 1.81199 6.86395C2.06799 7.01595 2.34399 7.09195 2.63999 7.09195C3.43199 7.09195 3.82799 6.62795 3.82799 5.69995V1.70394H0.875994V0.143945H5.75999V5.59195C5.75999 6.63195 5.50399 7.40795 4.99199 7.91995C4.47999 8.43195 3.72799 8.68795 2.73599 8.68795ZM11.5322 8.68795C10.3402 8.68795 9.40818 8.35595 8.73618 7.69195C8.06418 7.02795 7.72818 6.07995 7.72818 4.84794V0.143945H9.67218V4.77595C9.67218 5.57595 9.83618 6.15195 10.1642 6.50395C10.4922 6.85595 10.9522 7.03195 11.5442 7.03195C12.1362 7.03195 12.5962 6.85595 12.9242 6.50395C13.2522 6.15195 13.4162 5.57595 13.4162 4.77595V0.143945H15.3362V4.84794C15.3362 6.07995 15.0002 7.02795 14.3282 7.69195C13.6562 8.35595 12.7242 8.68795 11.5322 8.68795ZM20.1372 8.68795C19.4652 8.68795 18.8212 8.59995 18.2052 8.42395C17.5892 8.23995 17.0932 8.00395 16.7172 7.71595L17.3772 6.25195C17.7372 6.50795 18.1612 6.71995 18.6492 6.88795C19.1452 7.04795 19.6452 7.12795 20.1492 7.12795C20.5332 7.12795 20.8412 7.09195 21.0732 7.01995C21.3132 6.93995 21.4892 6.83195 21.6012 6.69595C21.7132 6.55995 21.7692 6.40395 21.7692 6.22795C21.7692 6.00395 21.6812 5.82795 21.5052 5.69995C21.3292 5.56395 21.0972 5.45595 20.8092 5.37595C20.5212 5.28795 20.2012 5.20795 19.8492 5.13595C19.5052 5.05595 19.1572 4.95995 18.8052 4.84794C18.4612 4.73594 18.1452 4.59195 17.8572 4.41595C17.5692 4.23995 17.3332 4.00795 17.1492 3.71995C16.9732 3.43195 16.8852 3.06395 16.8852 2.61595C16.8852 2.13595 17.0132 1.69994 17.2692 1.30794C17.5332 0.907945 17.9252 0.591945 18.4452 0.359945C18.9732 0.119945 19.6332 -5.48363e-05 20.4252 -5.48363e-05C20.9532 -5.48363e-05 21.4732 0.0639451 21.9852 0.191945C22.4972 0.311945 22.9492 0.495945 23.3412 0.743945L22.7412 2.21995C22.3492 1.99595 21.9572 1.83195 21.5652 1.72795C21.1732 1.61595 20.7892 1.55995 20.4132 1.55995C20.0372 1.55995 19.7292 1.60395 19.4892 1.69194C19.2492 1.77995 19.0772 1.89595 18.9732 2.03994C18.8692 2.17594 18.8172 2.33594 18.8172 2.51994C18.8172 2.73594 18.9052 2.91194 19.0812 3.04794C19.2572 3.17594 19.4892 3.27995 19.7772 3.35995C20.0652 3.43995 20.3812 3.51995 20.7252 3.59994C21.0772 3.67995 21.4252 3.77195 21.7692 3.87594C22.1212 3.97995 22.4412 4.11995 22.7292 4.29595C23.0172 4.47195 23.2492 4.70395 23.4252 4.99195C23.6092 5.27995 23.7012 5.64395 23.7012 6.08395C23.7012 6.55595 23.5692 6.98795 23.3052 7.37995C23.0412 7.77195 22.6452 8.08795 22.1172 8.32795C21.5972 8.56795 20.9372 8.68795 20.1372 8.68795ZM26.7724 8.54395V1.72795H24.0844V0.143945H31.4044V1.72795H28.7164V8.54395H26.7724ZM32.5703 8.54395V0.143945H34.5143V8.54395H32.5703ZM36.6278 8.54395V0.143945H38.2358L43.1918 6.19195H42.4118V0.143945H44.3318V8.54395H42.7358L37.7678 2.49595H38.5478V8.54395H36.6278ZM45.3352 8.54395L49.0792 0.143945H50.9992L54.7552 8.54395H52.7152L49.6432 1.12794H50.4112L47.3272 8.54395H45.3352ZM47.2072 6.74395L47.7232 5.26795H52.0432L52.5712 6.74395H47.2072ZM61.3532 8.54395V5.11195L61.7972 6.28795L58.1012 0.143945H60.1652L62.9972 4.85995H61.8092L64.6532 0.143945H66.5612L62.8652 6.28795L63.2972 5.11195V8.54395H61.3532ZM71.2113 8.68795C70.5473 8.68795 69.9313 8.57995 69.3633 8.36395C68.8033 8.14795 68.3153 7.84395 67.8993 7.45195C67.4913 7.05995 67.1713 6.59995 66.9393 6.07195C66.7153 5.54395 66.6033 4.96795 66.6033 4.34395C66.6033 3.71994 66.7153 3.14394 66.9393 2.61595C67.1713 2.08795 67.4953 1.62795 67.9113 1.23594C68.3273 0.843945 68.8153 0.539945 69.3753 0.323945C69.9353 0.107945 70.5433 -5.48363e-05 71.1993 -5.48363e-05C71.8633 -5.48363e-05 72.4713 0.107945 73.0233 0.323945C73.5833 0.539945 74.0673 0.843945 74.4753 1.23594C74.8913 1.62795 75.2153 2.08795 75.4473 2.61595C75.6793 3.13595 75.7953 3.71195 75.7953 4.34395C75.7953 4.96795 75.6793 5.54795 75.4473 6.08395C75.2153 6.61195 74.8913 7.07195 74.4753 7.46395C74.0673 7.84795 73.5833 8.14795 73.0233 8.36395C72.4713 8.57995 71.8673 8.68795 71.2113 8.68795ZM71.1993 7.03195C71.5753 7.03195 71.9193 6.96795 72.2313 6.83995C72.5513 6.71195 72.8313 6.52795 73.0713 6.28795C73.3113 6.04795 73.4953 5.76395 73.6233 5.43595C73.7593 5.10795 73.8273 4.74395 73.8273 4.34395C73.8273 3.94395 73.7593 3.57995 73.6233 3.25195C73.4953 2.92395 73.3113 2.63995 73.0713 2.39995C72.8393 2.15994 72.5633 1.97594 72.2433 1.84794C71.9233 1.71995 71.5753 1.65595 71.1993 1.65595C70.8233 1.65595 70.4753 1.71995 70.1553 1.84794C69.8433 1.97594 69.5673 2.15994 69.3273 2.39995C69.0873 2.63995 68.8993 2.92395 68.7633 3.25195C68.6353 3.57995 68.5713 3.94395 68.5713 4.34395C68.5713 4.73594 68.6353 5.09995 68.7633 5.43595C68.8993 5.76395 69.0833 6.04795 69.3153 6.28795C69.5553 6.52795 69.8353 6.71195 70.1553 6.83995C70.4753 6.96795 70.8233 7.03195 71.1993 7.03195ZM81.4563 8.68795C80.7923 8.68795 80.1763 8.57995 79.6083 8.36395C79.0483 8.14795 78.5603 7.84395 78.1443 7.45195C77.7363 7.05995 77.4163 6.59995 77.1843 6.07195C76.9603 5.54395 76.8483 4.96795 76.8483 4.34395C76.8483 3.71994 76.9603 3.14394 77.1843 2.61595C77.4163 2.08795 77.7403 1.62795 78.1563 1.23594C78.5723 0.843945 79.0603 0.539945 79.6203 0.323945C80.1803 0.107945 80.7883 -5.48363e-05 81.4443 -5.48363e-05C82.1083 -5.48363e-05 82.7163 0.107945 83.2683 0.323945C83.8283 0.539945 84.3123 0.843945 84.7203 1.23594C85.1363 1.62795 85.4603 2.08795 85.6923 2.61595C85.9243 3.13595 86.0403 3.71195 86.0403 4.34395C86.0403 4.96795 85.9243 5.54795 85.6923 6.08395C85.4603 6.61195 85.1363 7.07195 84.7203 7.46395C84.3123 7.84795 83.8283 8.14795 83.2683 8.36395C82.7163 8.57995 82.1123 8.68795 81.4563 8.68795ZM81.4443 7.03195C81.8203 7.03195 82.1643 6.96795 82.4763 6.83995C82.7963 6.71195 83.0763 6.52795 83.3163 6.28795C83.5563 6.04795 83.7403 5.76395 83.8683 5.43595C84.0043 5.10795 84.0723 4.74395 84.0723 4.34395C84.0723 3.94395 84.0043 3.57995 83.8683 3.25195C83.7403 2.92395 83.5563 2.63995 83.3163 2.39995C83.0843 2.15994 82.8083 1.97594 82.4883 1.84794C82.1683 1.71995 81.8203 1.65595 81.4443 1.65595C81.0683 1.65595 80.7203 1.71995 80.4003 1.84794C80.0883 1.97594 79.8123 2.15994 79.5723 2.39995C79.3323 2.63995 79.1443 2.92395 79.0083 3.25195C78.8803 3.57995 78.8163 3.94395 78.8163 4.34395C78.8163 4.73594 78.8803 5.09995 79.0083 5.43595C79.1443 5.76395 79.3283 6.04795 79.5603 6.28795C79.8003 6.52795 80.0803 6.71195 80.4003 6.83995C80.7203 6.96795 81.0683 7.03195 81.4443 7.03195Z" fill="#1E1E1F"/>
</svg>
