<svg width="57" height="11" viewBox="0 0 57 11" fill="none" xmlns="http://www.w3.org/2000/svg">
<path d="M-1.95652e-05 10.344V9.50396H1.06798C1.64398 9.50396 1.75198 9.34796 1.75198 8.24396V2.30396H2.71198V7.40396C2.71198 8.73596 1.25998 10.344 0.17998 10.344H-1.95652e-05ZM1.58398 0.647964C1.58398 0.299965 1.85998 -3.57628e-05 2.23198 -3.57628e-05C2.60398 -3.57628e-05 2.87998 0.299965 2.87998 0.647964C2.87998 0.995964 2.60398 1.29596 2.23198 1.29596C1.85998 1.29596 1.58398 0.995964 1.58398 0.647964ZM5.90257 8.20796C4.81057 8.20796 4.22257 7.41596 4.22257 6.27596V2.30396H5.18257V6.14396C5.18257 7.09196 5.38657 7.73996 6.21457 7.73996C7.69057 7.73996 8.37457 5.65196 8.37457 4.59596V2.30396H9.33457V8.06396H8.37457V5.55596C8.12257 6.80396 7.34257 8.20796 5.90257 8.20796ZM12.5502 8.20796C11.4462 8.20796 10.9062 7.78796 10.4742 7.48796V6.63596C10.9542 6.94796 11.6382 7.36796 12.5742 7.36796C13.5222 7.36796 14.3262 6.97196 14.3262 6.39596C14.3262 5.74796 13.3182 5.41196 12.3102 5.02796C11.4342 4.69196 10.5822 4.40396 10.5942 3.55196C10.6062 2.77196 11.3382 2.15996 12.6822 2.15996C13.5702 2.15996 14.1822 2.43596 14.6142 2.73596V3.58796C14.1462 3.25196 13.5102 2.99996 12.7182 2.99996C11.7822 2.99996 11.1102 3.34796 11.1102 3.86396C11.1102 4.42796 11.9022 4.69196 12.6462 4.97996C13.6902 5.38796 14.8662 5.74796 14.8542 6.65996C14.8422 7.29596 14.2062 8.20796 12.5502 8.20796ZM18.725 8.06396C18.245 8.06396 16.553 6.21596 16.553 5.48396V3.11996H15.449V2.30396H16.553V0.311965H17.513V2.30396H19.169V3.11996H17.513V5.96396C17.513 7.06796 17.621 7.22396 18.197 7.22396H19.385V8.06396H18.725ZM20.4564 8.06396V2.30396H21.4164V8.06396H20.4564ZM20.2884 0.647964C20.2884 0.299965 20.5644 -3.57628e-05 20.9364 -3.57628e-05C21.3084 -3.57628e-05 21.5844 0.299965 21.5844 0.647964C21.5844 0.995964 21.3084 1.29596 20.9364 1.29596C20.5644 1.29596 20.2884 0.995964 20.2884 0.647964ZM22.9617 8.06396V2.30396H23.9217V4.85996C24.1977 3.59996 25.0497 2.15996 26.5137 2.15996C27.6057 2.15996 28.1817 2.93996 28.1817 4.07996V8.06396H27.2217V4.21196C27.2217 3.26396 27.0297 2.62796 26.2017 2.62796C24.7257 2.62796 23.9217 4.70396 23.9217 5.75996V8.06396H22.9617ZM31.0348 8.20796C30.2188 8.20796 29.2828 7.70396 29.2828 6.53996C29.2828 5.42396 30.1468 4.84796 31.2628 4.84796H33.2548V3.11996H29.7628V2.30396H34.2148V8.06396H33.2548V6.45596C32.8588 7.57196 31.9228 8.20796 31.0348 8.20796ZM30.1108 6.59996C30.1108 7.40396 30.6988 7.75196 31.2988 7.75196C31.8508 7.75196 32.8948 7.43996 33.2548 6.02396V5.54396H31.3468C30.5908 5.54396 30.1108 5.86796 30.1108 6.59996ZM38.4639 10.344V9.50396H39.6279C40.0719 9.50396 40.4319 9.33596 40.6479 8.57996L40.7679 8.15996C39.8799 7.99196 39.5319 7.35596 39.2679 6.41996L38.0919 2.30396H39.0519L40.2279 6.97196C40.3839 7.60796 40.5159 7.89596 40.8039 8.02796L42.3879 2.30396H43.3479L41.7519 7.54796C41.5359 8.25596 39.6639 10.344 38.8839 10.344H38.4639ZM46.8012 8.20796C45.0492 8.20796 43.8492 6.86396 43.8492 5.18396C43.8492 3.50396 45.0492 2.15996 46.8012 2.15996C48.5532 2.15996 49.7532 3.50396 49.7532 5.18396C49.7532 6.86396 48.5532 8.20796 46.8012 8.20796ZM44.8092 5.18396C44.8092 6.44396 45.5772 7.36796 46.8012 7.36796C48.0252 7.36796 48.7932 6.44396 48.7932 5.18396C48.7932 3.92396 48.0252 2.99996 46.8012 2.99996C45.5772 2.99996 44.8092 3.92396 44.8092 5.18396ZM53.5395 8.20796C51.7875 8.20796 50.5875 6.86396 50.5875 5.18396C50.5875 3.50396 51.7875 2.15996 53.5395 2.15996C55.2915 2.15996 56.4915 3.50396 56.4915 5.18396C56.4915 6.86396 55.2915 8.20796 53.5395 8.20796ZM51.5475 5.18396C51.5475 6.44396 52.3155 7.36796 53.5395 7.36796C54.7635 7.36796 55.5315 6.44396 55.5315 5.18396C55.5315 3.92396 54.7635 2.99996 53.5395 2.99996C52.3155 2.99996 51.5475 3.92396 51.5475 5.18396Z" fill="#1E1E1F"/>
</svg>
