<svg width="62" height="18" viewBox="0 0 62 18" fill="none" xmlns="http://www.w3.org/2000/svg">
<rect y="3.78809" width="3" height="14.2105" rx="0.2" fill="#F5F2EA"/>
<rect x="10" y="3.78809" width="3" height="14.2105" rx="0.2" fill="#F5F2EA"/>
<rect x="3" y="3.78809" width="2.84211" height="7" rx="0.2" transform="rotate(-90 3 3.78809)" fill="#F5F2EA"/>
<rect x="3" y="13.2617" width="2.84211" height="7" transform="rotate(-90 3 13.2617)" fill="#F5F2EA"/>
<rect x="36.5" y="1.89453" width="3" height="16.1053" rx="0.2" fill="#F5F2EA"/>
<rect x="31" y="3.78809" width="2.84211" height="14" rx="0.2" transform="rotate(-90 31 3.78809)" fill="#F5F2EA"/>
<rect x="20.5" y="1.89453" width="3" height="16.1053" rx="0.2" fill="#F5F2EA"/>
<rect x="15" y="3.78809" width="2.84211" height="14" rx="0.2" transform="rotate(-90 15 3.78809)" fill="#F5F2EA"/>
<rect x="51" width="1" height="6.63158" rx="0.2" fill="#C6203E"/>
<rect x="54" y="3.78906" width="1" height="6.63158" rx="0.2" fill="#C6203E"/>
<rect x="57" y="7.5791" width="1" height="6.63158" rx="0.2" fill="#C6203E"/>
<rect x="48" width="1" height="18" rx="0.2" fill="#5ACE81"/>
<rect x="60" width="1" height="18" rx="0.2" fill="#5ACE81"/>
<rect x="50" y="0.947266" width="3" height="4.73684" rx="0.2" fill="#C6203E"/>
<rect x="53" y="4.7373" width="3" height="4.73684" rx="0.2" fill="#C6203E"/>
<rect x="56" y="8.52637" width="3" height="4.73684" rx="0.2" fill="#C6203E"/>
<rect x="59" y="0.947266" width="3" height="16.1053" rx="0.2" fill="#5ACE81"/>
<rect x="47" y="0.947266" width="3" height="16.1053" rx="0.2" fill="#5ACE81"/>
</svg>
