<svg width="114" height="114" viewBox="0 0 114.097 114.097" fill="none" xmlns="http://www.w3.org/2000/svg">
<path d="M111.013 107.334C112.538 110.358 110.342 113.938 106.939 113.949L71.5736 114.097C69.8326 114.097 68.251 113.131 67.4658 111.574L15.5209 8.16032C14.7471 6.60327 13.1541 5.63722 11.4245 5.63722H2.82198C1.26306 5.63722 0 4.37566 0 2.81861C0 1.26155 1.26306 0 2.82198 0H54.3231C56.0641 0 57.6344 0.97742 58.4196 2.52311L111.013 107.323V107.334ZM53.8111 107.471L8.65938 17.2867C6.49738 12.9792 0 14.5136 0 19.3325V109.528C0 112.051 2.04821 114.097 4.57434 114.097H49.726C53.1283 114.097 55.3359 110.528 53.8225 107.482L53.8111 107.471ZM109.545 0.113654H84.5115C81.9967 0.113654 79.9599 2.14805 79.9599 4.65979V24.3673C79.9599 26.8791 81.9967 28.9135 84.5115 28.9135H99.0993C101.409 28.9135 103.355 30.641 103.617 32.9368L104.288 38.7331C104.345 39.2218 104.959 39.415 105.278 39.04C110.956 32.5049 114.085 24.1514 114.085 15.5023V4.65979C114.085 2.14802 112.049 0.113654 109.534 0.113654H109.545Z" fill="#F8CD48"/>
</svg>
